<svg xmlns="http://www.w3.org/2000/svg" width="560" height="330" viewBox="0 0 560 330"><rect width="560" height="330" rx="28" fill="#fff7ed"/><circle cx="168" cy="141" r="72" fill="#fdba74" opacity=".6"/><path d="M169 70c-39 0-70 31-70 70 0 28 16 51 39 63v31h61v-31c24-12 40-36 40-63 0-39-31-70-70-70z" fill="#fff" stroke="#fb923c" stroke-width="5"/><rect x="133" y="237" width="72" height="15" rx="7" fill="#fb923c"/><rect x="315" y="77" width="165" height="176" rx="18" fill="#fff" stroke="#fed7aa" stroke-width="4"/><rect x="340" y="104" width="115" height="18" rx="9" fill="#7c3aed"/><rect x="340" y="139" width="90" height="12" rx="6" fill="#fdba74"/><rect x="340" y="166" width="115" height="12" rx="6" fill="#fed7aa"/><rect x="340" y="193" width="75" height="12" rx="6" fill="#fed7aa"/></svg>