<svg xmlns="http://www.w3.org/2000/svg" viewBox="0 0 640 440" role="img" aria-labelledby="title desc">
  <title id="title">AI Language Models and Foundation Models</title>
  <desc id="desc">Foundation model diagram with text, image, audio, tools, memory, and output nodes.</desc>
  <rect width="640" height="440" rx="24" fill="#f8fbff"/>
  <rect x="54" y="54" width="532" height="332" rx="24" fill="#ffffff" stroke="#dbe4ef" stroke-width="3"/>
  <circle cx="320" cy="220" r="94" fill="#eaf7f5" stroke="#0f766e" stroke-width="5"/>
  <text x="320" y="204" text-anchor="middle" font-family="Arial, sans-serif" font-size="22" font-weight="800" fill="#0f766e">Foundation</text>
  <text x="320" y="234" text-anchor="middle" font-family="Arial, sans-serif" font-size="22" font-weight="800" fill="#1d4ed8">Model</text>
  <path d="M236 176H132M236 220H132M236 264H132M404 176h104M404 220h104M404 264h104" stroke="#94a3b8" stroke-width="5" stroke-linecap="round"/>
  <g font-family="Arial, sans-serif" font-size="17" font-weight="700" fill="#182232">
    <rect x="70" y="152" width="92" height="48" rx="10" fill="#eef4ff" stroke="#dbe4ef"/>
    <text x="116" y="182" text-anchor="middle">Text</text>
    <rect x="70" y="196" width="92" height="48" rx="10" fill="#eef4ff" stroke="#dbe4ef"/>
    <text x="116" y="226" text-anchor="middle">Image</text>
    <rect x="70" y="240" width="92" height="48" rx="10" fill="#eef4ff" stroke="#dbe4ef"/>
    <text x="116" y="270" text-anchor="middle">Audio</text>
    <rect x="478" y="152" width="92" height="48" rx="10" fill="#ecfdf5" stroke="#dbe4ef"/>
    <text x="524" y="182" text-anchor="middle">Answer</text>
    <rect x="478" y="196" width="92" height="48" rx="10" fill="#ecfdf5" stroke="#dbe4ef"/>
    <text x="524" y="226" text-anchor="middle">Tool</text>
    <rect x="478" y="240" width="92" height="48" rx="10" fill="#ecfdf5" stroke="#dbe4ef"/>
    <text x="524" y="270" text-anchor="middle">Action</text>
  </g>
  <g fill="none" stroke="#1d4ed8" stroke-width="4" stroke-linecap="round">
    <path d="M248 328c46 38 98 38 144 0"/>
    <path d="M260 115c38-26 82-26 120 0"/>
  </g>
  <circle cx="320" cy="108" r="8" fill="#1d4ed8"/>
  <circle cx="320" cy="336" r="8" fill="#0f766e"/>
</svg>
