<svg xmlns="http://www.w3.org/2000/svg" width="720" height="480" viewBox="0 0 720 480" role="img" aria-label="AI brain diagram">
<rect width="720" height="480" rx="36" fill="#eef6ff"/><g fill="none" stroke="#2563eb" stroke-width="12" stroke-linecap="round" stroke-linejoin="round"><path d="M294 116c-54 0-98 43-98 96 0 17 5 34 13 48-30 15-50 46-50 81 0 50 41 91 92 91h192c64 0 116-51 116-114 0-49-32-91-76-107-9-54-56-95-113-95-30 0-57 11-78 29-15-18-37-29-62-29z"/><path d="M286 186v142M360 151v204M438 194v128M238 259h244M260 327h201M296 187h74M360 151h72M438 322h-78"/></g><g fill="#10b981"><circle cx="286" cy="186" r="15"/><circle cx="286" cy="328" r="15"/><circle cx="360" cy="151" r="15"/><circle cx="360" cy="355" r="15"/><circle cx="438" cy="194" r="15"/><circle cx="438" cy="322" r="15"/><circle cx="238" cy="259" r="15"/><circle cx="482" cy="259" r="15"/></g><text x="360" y="70" text-anchor="middle" font-family="Arial" font-size="34" font-weight="700" fill="#12326b">Artificial Intelligence</text></svg>
